<?xml version="1.0" encoding="utf-8"?>
<!-- Generator: Adobe Illustrator 15.0.2, SVG Export Plug-In . SVG Version: 6.00 Build 0)  -->
<!DOCTYPE svg PUBLIC "-//W3C//DTD SVG 1.1//EN" "http://www.w3.org/Graphics/SVG/1.1/DTD/svg11.dtd">
<svg version="1.1" id="レイヤー_1" xmlns="http://www.w3.org/2000/svg" xmlns:xlink="http://www.w3.org/1999/xlink" x="0px"
	 y="0px" width="48px" height="48px" viewBox="0 0 48 48" enable-background="new 0 0 48 48" xml:space="preserve">
<path fill-rule="evenodd" clip-rule="evenodd" fill="#C2C2C2" d="M4.996,34.86c1.524,0.876,3.012,1.732,4.519,2.6
	c-2.243,2.148-4.466,4.277-6.733,6.449C3.524,40.872,4.254,37.891,4.996,34.86C4.996,34.86,4.254,37.891,4.996,34.86 M21.279,17.213
	c-1.561-0.892-3.089-1.766-4.635-2.649c0.569-0.972,1.113-1.946,1.704-2.893c0.341-0.546,0.932-0.701,1.519-0.589
	c1.197,0.229,2.215,0.812,2.935,1.812c0.341,0.472,0.406,0.997,0.083,1.541C22.337,15.352,21.815,16.282,21.279,17.213
	C21.279,17.213,21.815,16.282,21.279,17.213z M41.201,31.427c-1.539,0.88-3.064,1.751-4.624,2.641
	c-0.863-1.48-1.713-2.936-2.562-4.393c1.385-0.792,2.773-1.584,4.16-2.383c0.457-0.262,0.455-0.27,0.715,0.176
	C39.654,28.772,40.414,30.079,41.201,31.427C41.201,31.427,40.414,30.079,41.201,31.427z M37.24,23.208h9.959v5.293
	c-0.08,0.008-0.17,0.022-0.26,0.022c-2.105,0.001-4.213,0.004-6.316-0.006c-0.127-0.001-0.312-0.072-0.371-0.17
	c-0.998-1.653-1.979-3.316-2.963-4.978C37.267,23.332,37.263,23.283,37.24,23.208C37.24,23.208,37.263,23.283,37.24,23.208z
	 M0.8,28.493v-5.285h10.072c-0.217,0.395-0.419,0.771-0.631,1.144c-0.757,1.329-1.514,2.657-2.281,3.979
	c-0.051,0.09-0.183,0.188-0.278,0.188c-2.265,0.01-4.529,0.006-6.794,0.004C0.867,28.522,0.845,28.509,0.8,28.493
	C0.8,28.493,0.845,28.509,0.8,28.493z M43.229,43.853c-0.121-0.391-0.223-0.742-0.342-1.086c-0.129-0.372-0.252-0.749-0.418-1.104
	c-0.361-0.768-1.115-1.024-1.82-1.335c-1.729-0.763-2.795-2.071-3.158-3.916c-0.104-0.52-0.082-1.07-0.067-1.605
	c0.004-0.159,0.142-0.377,0.282-0.46c1.055-0.626,2.123-1.229,3.195-1.825c0.098-0.054,0.277-0.045,0.379,0.009
	c1.896,0.997,3.133,2.517,3.6,4.621c0.363,1.64,0.123,3.229-0.512,4.758c-0.256,0.616-0.633,1.183-0.957,1.771
	C43.383,43.728,43.328,43.759,43.229,43.853C43.229,43.853,43.328,43.759,43.229,43.853z M32.488,28.524H15.512
	c0.444-0.771,0.869-1.516,1.3-2.259c0.555-0.956,1.109-1.914,1.681-2.86c0.06-0.1,0.228-0.189,0.346-0.189
	c3.454-0.01,6.907-0.01,10.361,0c0.129,0.001,0.315,0.097,0.378,0.205c0.922,1.581,1.829,3.172,2.738,4.762
	C32.372,28.28,32.418,28.385,32.488,28.524C32.488,28.524,32.418,28.385,32.488,28.524z M9.93,36.726
	c-1.549-0.893-3.062-1.766-4.603-2.654c3.633-6.299,7.258-12.582,10.899-18.895c1.539,0.888,3.058,1.765,4.604,2.657
	C17.196,24.134,13.573,30.411,9.93,36.726C9.93,36.726,13.573,30.411,9.93,36.726z M38.26,26.45
	c-1.518,0.873-3.031,1.744-4.59,2.641c-0.25-0.415-0.5-0.817-0.737-1.227c-1.304-2.246-2.606-4.494-3.905-6.744
	c-1.182-2.048-2.353-4.104-3.535-6.153c-1.276-2.21-2.564-4.414-3.838-6.626c-0.242-0.421-0.488-0.851-0.647-1.306
	c-0.183-0.518,0.059-0.99,0.395-1.371c0.647-0.734,1.45-1.258,2.407-1.49c0.901-0.219,1.619-0.033,2.111,0.88
	c0.876,1.621,1.84,3.194,2.763,4.791c0.828,1.433,1.646,2.871,2.476,4.304c1.29,2.229,2.59,4.453,3.878,6.684
	C36.113,22.698,37.18,24.569,38.26,26.45C38.26,26.45,37.18,24.569,38.26,26.45z"/>
</svg>
